<?xml version="1.0" encoding="utf-8"?>
<!-- Generator: Adobe Illustrator 25.3.1, SVG Export Plug-In . SVG Version: 6.00 Build 0)  -->
<svg version="1.1" id="Layer_1" xmlns="http://www.w3.org/2000/svg" xmlns:xlink="http://www.w3.org/1999/xlink" x="0px" y="0px"
	 width="321.3px" height="102.3px" viewBox="0 0 321.3 102.3" style="enable-background:new 0 0 321.3 102.3;" xml:space="preserve"
	>
<style type="text/css">
	.st0{fill-rule:evenodd;clip-rule:evenodd;fill:#2A3492;}
	.st1{fill:#2A3492;}
</style>
<g>
	<polygon class="st0" points="320.2,46.4 320.1,47.2 320.1,48.1 320,49 319.8,49.8 319.7,50.6 319.6,51.4 319.4,52.2 319.2,53 
		318.9,53.8 318.7,54.5 318.4,55.3 318.1,56.1 317.8,56.7 317.5,57.5 317.1,58.2 316.7,58.9 316.3,59.5 315.9,60.2 315.4,60.9 
		315,61.5 314.5,62.1 314,62.7 313.4,63.3 312.8,63.9 311.7,65.1 310.4,66.1 309,67.1 307.6,68.1 306,69.1 304.4,69.9 302.7,70.7 
		300.9,71.5 299,72.1 297.1,72.8 295.1,73.3 293,73.9 290.8,74.3 288.6,74.7 286.3,75 283.8,75.3 281.4,75.5 278.8,75.6 276.2,75.7 
		273.5,75.7 270.3,75.7 267.2,75.6 264.2,75.4 261.3,75.1 258.5,74.8 255.8,74.4 253.2,73.9 250.7,73.3 248.2,72.7 245.9,72 
		243.7,71.2 241.5,70.3 239.4,69.3 237.5,68.3 235.6,67.3 233.8,66.1 233,65.5 232.2,64.8 231.4,64.2 230.6,63.5 229.8,62.9 
		229.1,62.1 228.4,61.5 227.8,60.7 227.1,60 226.5,59.2 225.9,58.5 225.4,57.7 224.9,56.9 224.4,56 223.9,55.2 223.5,54.4 223,53.5 
		222.6,52.6 222.3,51.7 221.9,50.8 221.6,49.8 221.3,48.9 221.1,47.9 220.8,46.9 220.6,45.9 220.5,44.9 220.3,43.9 220.2,42.8 
		220.1,41.8 220,40.7 220,39.6 220,38.4 220,37.4 220,36.4 220.1,35.3 220.2,34.3 220.3,33.3 220.5,32.3 220.7,31.4 220.9,30.4 
		221.1,29.4 221.4,28.5 221.7,27.6 222,26.6 222.3,25.8 222.7,24.9 223.1,24 223.6,23.2 224,22.3 224.5,21.5 225,20.7 225.6,19.8 
		226.2,19.1 226.7,18.3 227.4,17.5 228.1,16.8 228.7,16.1 229.5,15.3 230.2,14.7 231,13.9 232.6,12.6 234.3,11.3 236.2,10.1 
		238.1,8.9 240.1,7.8 242.1,6.8 244.3,5.9 246.5,5.1 248.7,4.3 251.1,3.6 253.6,3 256.1,2.5 258.7,2.1 261.3,1.7 264.1,1.4 
		266.9,1.2 269.8,1.1 272.7,1.1 274.7,1.1 276.7,1.1 278.6,1.3 280.5,1.4 282.4,1.5 284.2,1.7 286,2 287.8,2.3 289.5,2.6 291.2,2.9 
		292.9,3.3 294.6,3.8 296.2,4.3 297.8,4.8 299.5,5.4 301.1,6 303.6,2.1 319.7,2.1 319.7,31.1 301.9,31.1 301.6,29.9 301.2,28.6 
		300.8,27.5 300.4,26.4 300,25.3 299.6,24.3 299.1,23.3 298.6,22.4 298.1,21.4 297.6,20.6 297,19.8 296.4,19 295.9,18.3 295.2,17.6 
		294.6,17 294,16.4 293.3,15.8 292.6,15.3 291.8,14.8 291,14.4 290.3,13.9 289.4,13.6 288.5,13.3 287.7,12.9 286.8,12.7 285.8,12.5 
		284.8,12.3 283.8,12.1 282.8,11.9 281.8,11.9 280.7,11.8 279.6,11.8 278.3,11.8 277,11.9 275.8,12 274.7,12.2 273.5,12.4 
		272.5,12.7 271.5,13 270.5,13.3 269.6,13.8 268.7,14.3 267.8,14.7 267,15.3 266.3,15.9 265.5,16.6 264.9,17.3 264.3,18.1 
		263.7,18.8 263.2,19.8 262.7,20.7 262.2,21.6 261.8,22.7 261.4,23.8 261,25 260.7,26.2 260.4,27.5 260.2,28.9 260,30.3 259.8,31.8 
		259.7,33.3 259.6,34.9 259.5,36.6 259.5,38.2 259.5,40 259.6,41.7 259.7,43.4 259.8,44.9 260,46.4 260.2,47.9 260.4,49.3 
		260.7,50.6 261.1,51.8 261.4,53 261.8,54.2 262.3,55.3 262.7,56.3 263.3,57.2 263.8,58.1 264.4,58.9 265.1,59.7 265.8,60.4 
		266.5,61.1 267.3,61.7 268.1,62.2 269,62.7 269.9,63.2 270.9,63.7 271.9,64 273,64.3 274.1,64.6 275.3,64.8 276.5,65 277.8,65.1 
		279.1,65.2 280.5,65.2 281.7,65.2 282.9,65.1 284.1,65.1 285.2,64.9 286.4,64.7 287.5,64.5 288.5,64.3 289.6,63.9 290.6,63.6 
		291.6,63.2 292.6,62.8 293.5,62.3 294.4,61.9 295.3,61.3 296.1,60.7 296.9,60.1 297.7,59.5 298.5,58.8 299.2,58.1 299.8,57.3 
		300.4,56.6 301,55.8 301.5,54.9 302,54.1 302.4,53.2 302.8,52.4 303.1,51.4 303.4,50.5 303.7,49.5 303.9,48.5 304.1,47.4 
		304.2,46.4 	"/>
	<polygon class="st0" points="201.5,1.1 201.5,28.8 184.9,28.8 184.5,27.5 184.1,26.2 183.7,25.1 183.3,24 182.8,23 182.4,22 
		181.9,21.2 181.5,20.4 181,19.6 180.6,18.9 180,18.3 179.5,17.7 179,17.1 178.4,16.5 177.8,16 177.1,15.5 176.4,15 175.6,14.5 
		174.7,14.1 173.9,13.7 172.9,13.3 172,13 171,12.7 169.9,12.5 168.8,12.3 167.4,12.1 166,11.9 164.3,11.8 162.5,11.7 160.6,11.7 
		158.4,11.6 156.2,11.6 153,11.6 139.6,11.6 139.6,32 143.7,32 145.4,32 146.9,31.9 148.4,31.7 149.7,31.4 150.9,31.1 151.9,30.6 
		152.4,30.4 152.8,30.2 153.2,29.9 153.6,29.6 153.9,29.3 154.3,28.9 154.6,28.6 154.8,28.1 155.1,27.7 155.3,27.2 155.6,26.7 
		155.7,26.2 155.9,25.6 156.1,25 156.2,24.4 156.3,23.8 156.3,23.1 156.4,22.4 156.4,21.6 156.5,20.9 156.5,20.2 169.5,20.2 
		169.5,54.3 156.5,54.3 156.4,53.3 156.3,52.4 156.2,51.6 156.2,50.7 156,50 155.9,49.2 155.7,48.5 155.6,47.8 155.4,47.2 
		155.2,46.6 155,46.1 154.7,45.6 154.5,45.2 154.2,44.8 153.9,44.4 153.6,44.1 153.3,43.8 152.9,43.6 152.5,43.4 152,43.1 151,42.7 
		149.9,42.4 148.6,42.1 147.1,42 145.5,41.8 143.8,41.8 139.6,41.8 139.6,65 158.1,65 160.7,65 163.1,64.9 165.2,64.9 167.2,64.8 
		168.9,64.7 170.5,64.5 171.8,64.3 172.9,64.1 173.9,63.8 174.8,63.5 175.7,63.2 176.5,62.8 177.3,62.4 178,61.9 178.6,61.5 
		179.2,60.9 179.8,60.3 180.3,59.5 180.9,58.8 181.4,58 181.8,57.1 182.3,56.3 182.7,55.4 183,54.5 183.3,53.5 183.7,52.4 
		183.9,51.3 184.2,50.2 184.4,48.9 184.6,47.6 184.7,46.2 184.9,44.8 202,44.8 202,75.6 91.8,75.6 91.8,65 97.1,65 98.3,65 
		99.5,64.9 100.5,64.9 101.4,64.8 102.2,64.7 102.9,64.5 103.4,64.3 103.9,64.1 104.1,64 104.3,63.9 104.4,63.7 104.6,63.5 
		104.7,63.3 104.9,63 105,62.7 105.1,62.5 105.2,62.1 105.3,61.8 105.4,61.4 105.4,61 105.5,60.1 105.5,59.1 105.5,58.6 105.5,17.9 
		105.5,16.9 105.4,16 105.4,15.5 105.3,15.1 105.2,14.8 105.1,14.5 105,14.1 104.9,13.8 104.8,13.5 104.7,13.3 104.5,13.1 
		104.3,12.9 104.2,12.7 104,12.6 103.5,12.3 103,12.1 102.3,12 101.5,11.9 100.5,11.7 99.5,11.7 98.2,11.6 96.9,11.6 91.8,11.6 
		91.8,1.1 	"/>
	<polygon class="st0" points="72.8,1 72.8,11.5 66.9,11.5 65.4,11.5 64,11.6 62.7,11.7 61.6,11.8 60.7,11.9 59.9,12.1 59.2,12.3 
		58.6,12.6 58.4,12.7 58.2,12.9 58,13.1 57.9,13.3 57.7,13.5 57.5,13.9 57.4,14.1 57.3,14.5 57.2,14.8 57.1,15.1 57,15.5 57,16 
		56.9,16.9 56.8,17.9 56.8,58.6 56.9,59.1 56.9,59.6 56.9,60.1 57,60.5 57,60.9 57.1,61.3 57.2,61.7 57.3,62.1 57.5,62.4 57.6,62.7 
		57.7,62.9 57.9,63.2 58.1,63.4 58.3,63.6 58.5,63.8 58.7,63.9 59.2,64.2 59.9,64.4 60.7,64.6 61.7,64.7 62.8,64.9 64,64.9 65.4,65 
		66.9,65 72.8,65 72.8,75.6 1.1,75.6 1.1,65 7.1,65 8.6,65 10,64.9 11.2,64.9 12.3,64.7 13.3,64.6 14.1,64.4 14.7,64.2 15.3,63.9 
		15.5,63.8 15.7,63.6 15.9,63.4 16.1,63.2 16.2,62.9 16.4,62.7 16.5,62.4 16.7,62.1 16.8,61.7 16.9,61.3 16.9,60.9 17,60.5 
		17.1,59.6 17.1,58.6 17.1,17.9 17.1,16.9 17,16 16.9,15.5 16.9,15.1 16.8,14.8 16.7,14.5 16.5,14.1 16.4,13.9 16.3,13.5 16.1,13.3 
		15.9,13.1 15.7,12.9 15.5,12.7 15.3,12.6 14.8,12.3 14.1,12.1 13.3,11.9 12.4,11.8 11.3,11.7 10,11.6 8.6,11.5 7.1,11.5 1.1,11.5 
		1.1,1 	"/>
</g>
<g>
	<path class="st1" d="M1,94.2c0-4.3,3.3-7.4,7.9-7.4c1.9,0,3.5,0.5,4.3,1c0,1.1,0.1,2.1,0.2,3h-1c-0.5-2.3-2-3-3.6-3
		c-3,0-4.1,2.5-4.1,5.5c0,3.9,2.1,6.8,5.5,6.8c0.9,0,2.4-0.2,3.2-1.1l0.6,0.6c-0.9,1-2.8,1.9-5.4,1.9C3.9,101.3,1,98.1,1,94.2z"/>
	<path class="st1" d="M16.4,94.1c0-4.3,3.1-7.4,7.2-7.4c4.1,0,7.1,2.9,7.1,7.3c0,4.2-3.1,7.3-7.2,7.3
		C19.4,101.3,16.4,98.3,16.4,94.1z M27.1,94.7c0-4.2-1.3-7-3.9-7c-2.2,0-3.2,2-3.2,5.7c0,4,1.3,6.8,3.9,6.8
		C26.1,100.3,27.1,98.2,27.1,94.7z"/>
	<path class="st1" d="M32.5,100.3c1.1-0.2,1.8-0.3,1.8-1.7v-9.1c0-1.5-0.7-1.5-1.8-1.7v-0.7h6.9v0.7c-1.1,0.2-1.6,0.3-1.6,1.7v8.8
		c0,1.5,0.4,1.7,2.1,1.7H41c1.7,0,2.6-0.5,3.4-2.6h0.8l-0.9,3.6H32.5V100.3z"/>
	<path class="st1" d="M46.3,100.3c1.1-0.2,1.8-0.3,1.8-1.7v-9.1c0-1.5-0.7-1.5-1.8-1.7v-0.7h6.9v0.7c-1.1,0.2-1.6,0.3-1.6,1.7v8.8
		c0,1.5,0.4,1.7,2.1,1.7h1.1c1.7,0,2.6-0.5,3.4-2.6H59l-0.9,3.6H46.3V100.3z"/>
	<path class="st1" d="M72.7,97.5l-0.9,3.5H60.1v-0.7c1.1-0.2,1.8-0.3,1.8-1.7v-9.1c0-1.5-0.7-1.5-1.8-1.7v-0.7h11.6l0.2,3.3h-0.8
		c-0.2-1.6-0.6-2.3-2.2-2.3h-1.5c-1.7,0-2.1,0.2-2.1,1.7v3.8h1.3c2.7,0,2.9-0.5,3.1-1.9h0.6v4.6h-0.6c-0.1-1.3-0.4-1.9-3.1-1.9h-1.3
		v3.9c0,1.5,0.4,1.7,2.1,1.7h1.1c1.7,0,2.6-0.6,3.4-2.5H72.7z"/>
	<path class="st1" d="M74.6,94.2c0-4.3,3.3-7.4,8-7.4c2.1,0,3.6,0.5,4.5,1c0,1.1,0.1,2.1,0.2,3h-1c-0.5-2.3-2-3-3.9-3
		c-2.9,0-4,2-4,5.6c0,4.1,1.4,7,3.8,7c1.8,0,2.5-0.7,2.5-2.4v-0.5c0-1.9-0.5-2.3-2.3-2.4v-0.8h6.5v0.8c-0.8,0.1-1.3,0.5-1.3,1.5v0.3
		c0,1.8,0.1,2.8,0.4,3.3c-1,0.6-3,1.2-5.5,1.2C77.4,101.3,74.6,98.1,74.6,94.2z"/>
	<path class="st1" d="M103,97.5l-0.9,3.5H90.4v-0.7c1.1-0.2,1.8-0.3,1.8-1.7v-9.1c0-1.5-0.7-1.5-1.8-1.7v-0.7h11.6l0.2,3.3h-0.8
		c-0.2-1.6-0.6-2.3-2.2-2.3h-1.5c-1.7,0-2.1,0.2-2.1,1.7v3.8H97c2.7,0,2.9-0.5,3.1-1.9h0.6v4.6h-0.6c-0.1-1.3-0.4-1.9-3.1-1.9h-1.3
		v3.9c0,1.5,0.4,1.7,2.1,1.7h1.1c1.7,0,2.6-0.6,3.4-2.5H103z"/>
	<path class="st1" d="M110.8,94.1c0-4.3,3.1-7.4,7.2-7.4c4.1,0,7.1,2.9,7.1,7.3c0,4.2-3.1,7.3-7.2,7.3
		C113.8,101.3,110.8,98.3,110.8,94.1z M121.5,94.7c0-4.2-1.3-7-3.9-7c-2.2,0-3.2,2-3.2,5.7c0,4,1.3,6.8,3.9,6.8
		C120.5,100.3,121.5,98.2,121.5,94.7z"/>
	<path class="st1" d="M138.9,90.4h-0.8c-0.2-1.6-0.6-2.3-2.2-2.3h-1.6c-1.7,0-2.1,0.2-2.1,1.7v3.8h1.5c2.7,0,2.9-0.5,3.1-1.9h0.6
		v4.6h-0.6c-0.1-1.3-0.4-1.9-3.1-1.9h-1.5v4.1c0,1.5,0.7,1.5,1.8,1.7v0.7h-7.1v-0.7c1.1-0.2,1.8-0.3,1.8-1.7v-9.1
		c0-1.5-0.7-1.5-1.8-1.7v-0.7h11.7L138.9,90.4z"/>
	<path class="st1" d="M161,100.3v0.7h-6.9v-0.7c0.9-0.2,1.8-0.2,1.4-1.2l-0.9-2.1h-5.1l-0.9,2c-0.4,1,0.4,1,1.3,1.2v0.7h-4.3v-0.7
		c1.1-0.2,1.3-0.3,1.8-1.3l5.3-12.1h1l5.3,12.2C159.6,100.1,159.9,100.1,161,100.3z M154.1,96.1l-2.2-5l-2.1,5H154.1z"/>
	<path class="st1" d="M178,100.3v0.7c-0.5,0.2-1.3,0.4-2.2,0.4c-2.2,0-3.4-0.7-4.2-2.1l-1.2-2.2c-0.9-1.6-1.5-2-2.5-2.1v3.5
		c0,1.5,0.7,1.5,1.8,1.7v0.7h-7.1v-0.7c1.1-0.2,1.8-0.3,1.8-1.7v-9.1c0-1.5-0.7-1.5-1.8-1.7v-0.7h6.7c3.7,0,6.5,0.9,6.5,3.9
		c0,2.2-1.6,3.5-4.3,3.9c1.2,0.2,2,0.9,2.5,1.8l1,1.8C175.5,99.4,176.7,100.7,178,100.3z M167.8,89.1v5h0.9c2.9,0,3.4-1.5,3.4-2.9
		c0-1.5-0.5-3.1-2.7-3.1C168.1,88.1,167.8,88.4,167.8,89.1z"/>
	<path class="st1" d="M191.3,90.9h-0.6c-0.3-1.8-0.9-2.9-3.3-2.9h-0.6v10.6c0,1.5,0.7,1.5,1.9,1.7v0.7h-7.3v-0.7
		c1.2-0.2,1.9-0.3,1.9-1.7V88h-0.6c-2.4,0-3,1-3.3,2.9h-0.6l0.2-4l1.3,0.2h9.6l1.3-0.2L191.3,90.9z"/>
	<path class="st1" d="M214.4,98.5v0.8c-1.2,1.1-3,1.9-4.3,1.9c-0.9,0-1.7-0.5-2.3-1.1c-1.1,0.7-2.4,1.1-3.8,1.1
		c-2.5,0-5.5-0.9-5.5-4c0-2.3,1.6-3.3,3.5-4c-0.7-1-0.9-1.7-0.9-2.3c0-2.1,2.4-3.4,4.6-3.4c1.4,0,3.3,0.6,3.3,2.2
		c0,1.3-1.3,2.6-3.4,3.8l0.2,0.2l3.1,3.6c0.4-0.6,0.6-1.3,0.6-1.8c0-0.9-1.1-1.1-1.9-1.1v-0.8h6.4v0.8c-1.2,0.1-1.8,0.3-2.4,1.6
		c-0.4,0.9-1,1.8-1.7,2.5l0.7,0.8C211.1,99.9,212.9,99.5,214.4,98.5z M204.8,100.3c0.8,0,1.6-0.4,2.3-0.9l-4-4.8l-0.3-0.4
		c-0.6,0.6-1,1.4-1,2.6C201.8,99,203.3,100.3,204.8,100.3z M203.9,89.9c0,0.9,0.4,1.9,1.2,2.9c1.1-1,1.2-2.2,1.2-2.7
		c0-0.9-0.4-1.8-1.2-1.8C204.5,88.4,203.9,88.9,203.9,89.9z"/>
	<path class="st1" d="M233.6,90.4h-0.8c-0.2-1.6-0.6-2.3-2.2-2.3H229c-1.7,0-2.1,0.2-2.1,1.7v3.8h1.5c2.7,0,2.9-0.5,3.1-1.9h0.6v4.6
		h-0.6c-0.1-1.3-0.4-1.9-3.1-1.9H227v4.1c0,1.5,0.7,1.5,1.8,1.7v0.7h-7.1v-0.7c1.1-0.2,1.8-0.3,1.8-1.7v-9.1c0-1.5-0.7-1.5-1.8-1.7
		v-0.7h11.7L233.6,90.4z"/>
	<path class="st1" d="M248.6,100.3v0.7h-6.9v-0.7c0.9-0.2,1.8-0.2,1.4-1.2l-0.9-2.1H237l-0.9,2c-0.4,1,0.4,1,1.3,1.2v0.7h-4.3v-0.7
		c1.1-0.2,1.3-0.3,1.8-1.3l5.3-12.1h1l5.3,12.2C247.1,100.1,247.4,100.1,248.6,100.3z M241.7,96.1l-2.2-5l-2.1,5H241.7z"/>
	<path class="st1" d="M250.3,99.9l-0.2-2.9h0.7c0.6,2.1,2.1,3.4,4.1,3.4c1.6,0,2.6-1,2.6-2.3c0-1.1-0.8-2-2.8-2.8
		c-2.1-0.9-4.4-2.1-4.4-4.7c0-2.4,1.9-3.9,5.1-3.9c2.4,0,3.7,0.9,4.3,1.3l0.1,3h-0.7c-0.6-2-1.5-3.4-3.4-3.4c-1.6,0-2.3,1-2.3,1.9
		c0,0.9,0.4,1.5,2.4,2.4c1.9,0.8,4.9,2.1,4.9,5c0,2.6-2.3,4.3-5.6,4.3C252.5,101.3,250.9,100.3,250.3,99.9z"/>
	<path class="st1" d="M276.7,89.5v9.1c0,1.5,0.7,1.5,1.8,1.7v0.7h-7.1v-0.7c1.1-0.2,1.8-0.3,1.8-1.7v-4h-5.3v4
		c0,1.5,0.7,1.5,1.8,1.7v0.7h-7.1v-0.7c1.1-0.2,1.8-0.3,1.8-1.7v-9.1c0-1.5-0.7-1.5-1.8-1.7v-0.7h7.1v0.7c-1.1,0.2-1.8,0.3-1.8,1.7
		v4.1h5.3v-4.1c0-1.5-0.7-1.5-1.8-1.7v-0.7h7.1v0.7C277.3,88,276.7,88,276.7,89.5z"/>
	<path class="st1" d="M280.3,100.3c1.1-0.2,1.8-0.3,1.8-1.7v-9.1c0-1.5-0.7-1.5-1.8-1.7v-0.7h7.1v0.7c-1.1,0.2-1.8,0.3-1.8,1.7v9.1
		c0,1.5,0.7,1.5,1.8,1.7v0.7h-7.1V100.3z"/>
	<path class="st1" d="M289.6,94.1c0-4.3,3.1-7.4,7.2-7.4c4.1,0,7.1,2.9,7.1,7.3c0,4.2-3.1,7.3-7.2,7.3
		C292.7,101.3,289.6,98.3,289.6,94.1z M300.3,94.7c0-4.2-1.3-7-3.9-7c-2.2,0-3.2,2-3.2,5.7c0,4,1.3,6.8,3.9,6.8
		C299.3,100.3,300.3,98.2,300.3,94.7z"/>
	<path class="st1" d="M320.4,87.1v0.7c-1.1,0.2-1.9,0.3-1.9,1.7V101h-1.4l-8.4-11.8v9.4c0,1.5,0.7,1.5,2,1.7v0.7h-4.9v-0.7
		c1.1-0.2,1.9-0.3,1.9-1.7v-9.1c0-1.5-0.7-1.5-1.9-1.7v-0.7h5.3l6.4,9.1v-6.7c0-1.5-0.7-1.5-2-1.7v-0.7H320.4z"/>
</g>
</svg>
